<svg width="80" height="100" viewBox="0 0 80 100" fill="none" xmlns="http://www.w3.org/2000/svg">
<path d="M79 40.0573C79 50.7692 72.9436 61.8173 64.8571 72.1411C57.7943 81.1579 49.297 89.4841 42.225 96.4137C41.4674 97.1561 40.7261 97.8824 40.0047 98.5919C38.9805 97.5715 37.9216 96.5239 36.8371 95.4509C29.819 88.5078 21.7258 80.5011 14.9879 71.9087C6.955 61.6649 1 50.7707 1 40.0573C1 18.4852 18.4622 1 40 1C61.5378 1 79 18.4852 79 40.0573Z" fill="#E37243" stroke="white" stroke-width="2"/>
<rect x="25.33" y="22.0309" width="28.9278" height="38.8247" stroke="white" stroke-width="2"/>
<path fill-rule="evenodd" clip-rule="evenodd" d="M45.7733 29.9738L24.33 21.0309V61.8557L45.7733 70.6525V29.9738ZM40.5996 49.0844C41.7384 49.0844 42.6615 48.1613 42.6615 47.0226C42.6615 45.8838 41.7384 44.9607 40.5996 44.9607C39.4609 44.9607 38.5378 45.8838 38.5378 47.0226C38.5378 48.1613 39.4609 49.0844 40.5996 49.0844Z" fill="white"/>
</svg>
