<svg width="1554" height="2041" viewBox="0 0 1554 2041" fill="none" xmlns="http://www.w3.org/2000/svg">
<g clip-path="url(#clip0_227_59)">
<path d="M551.267 272.445C67.916 235.49 -166 461.943 -166 461.943V642C306.686 642 572.033 577.224 870.55 496.336C1088.85 437.183 1432.61 478.578 1554 496.336V0C1421.15 106.213 1034.62 309.401 551.267 272.445Z" fill="#F2F2F2"/>
<path d="M515.97 454.282C76.122 407.57 -11.196 650.924 -11.196 650.924L-65 908C365.143 908 453.561 753.168 725.207 650.924C923.86 576.154 1343.68 747.6 1554 694.397V104C1234.44 517.743 955.82 500.994 515.97 454.282Z" fill="#F7F7F7"/>
<path d="M914.41 1768.55C1386.52 1805.51 1615 1579.06 1615 1579.06V1399C1153.31 1399 894.13 1463.78 602.56 1544.66C389.336 1603.82 53.569 1562.42 -65 1544.66V2041C64.758 1934.79 442.303 1731.6 914.41 1768.55Z" fill="#F2F2F2"/>
<path d="M882.35 1628.41C1339 1675.15 1560 1388.74 1560 1388.74V1161C1113.42 1161 862.73 1242.93 580.706 1345.24C374.462 1420.05 49.687 1367.7 -65 1345.24V1973C60.51 1838.66 425.694 1581.67 882.35 1628.41Z" fill="#F7F7F7"/>
</g>
<defs>
<clipPath id="clip0_227_59">
<rect width="1554" height="2041" fill="white"/>
</clipPath>
</defs>
</svg>
